<svg width="359" height="237" viewBox="0 0 359 237" fill="none" xmlns="http://www.w3.org/2000/svg">
<g clip-path="url(#clip0_101_3)">
<rect width="359" height="237" rx="12" fill="url(#paint0_linear_101_3)"/>
<ellipse cx="170.662" cy="88.3381" rx="41.4691" ry="41.4893" fill="url(#paint1_linear_101_3)"/>
<path d="M199.347 91.1519C199.347 86.7057 202.951 83.1014 207.398 83.1014V83.1014C214.808 83.1014 220.815 89.1086 220.815 96.5188V115.815H199.347V91.1519Z" fill="url(#paint2_linear_101_3)"/>
<path d="M137.916 110.189C137.916 101.069 145.309 93.6754 154.43 93.6754V93.6754C157.166 93.6754 159.384 95.8934 159.384 98.6295V115.815H137.916V110.189Z" fill="url(#paint3_linear_101_3)"/>
<path d="M159.384 95.8135C159.384 84.7779 168.33 75.8318 179.365 75.8318V75.8318C190.401 75.8318 199.347 84.7779 199.347 95.8135V115.815H159.384V95.8135Z" fill="url(#paint4_linear_101_3)"/>
<path d="M207.274 104.74C207.274 98.629 212.227 93.6754 218.338 93.6754V93.6754C224.449 93.6754 229.402 98.629 229.402 104.74V115.815H207.274V104.74Z" fill="url(#paint5_linear_101_3)"/>
<path d="M152.778 102.425C152.778 95.038 158.767 89.0492 166.154 89.0492V89.0492C173.542 89.0492 179.531 95.038 179.531 102.425V115.815H152.778V102.425Z" fill="url(#paint6_linear_101_3)"/>
<path d="M131.971 111.517C131.971 109.146 133.893 107.223 136.264 107.223V107.223C138.636 107.223 140.558 109.146 140.558 111.517V115.815H135.193C133.413 115.815 131.971 114.372 131.971 112.593V111.517Z" fill="url(#paint7_linear_101_3)"/>
<path d="M213.879 104.74C213.879 98.629 208.926 93.6754 202.815 93.6754V93.6754C196.704 93.6754 191.751 98.629 191.751 104.74V115.815H205.577C210.162 115.815 213.879 112.098 213.879 107.512V104.74Z" fill="url(#paint8_linear_101_3)"/>
<path d="M236.338 110.029C236.338 106.837 233.75 104.249 230.558 104.249V104.249C227.366 104.249 224.778 106.837 224.778 110.029V115.815H232.001C234.396 115.815 236.338 113.873 236.338 111.478V110.029Z" fill="url(#paint9_linear_101_3)"/>
<path d="M107.361 138.579C117.537 119.997 139.351 111.1 159.62 117.264V117.264C166.357 119.313 173.483 119.742 180.417 118.518L186.325 117.475C221.181 111.321 255.125 132.229 265.311 166.127L266.894 171.398L282.672 237.62L209.299 256.33C200.639 258.538 191.737 259.655 182.799 259.655V259.655C175.586 259.655 168.391 258.927 161.324 257.483L77.1254 240.275L88.1381 181.319C89.5725 173.641 92.2148 166.238 95.9668 159.386L107.361 138.579Z" fill="url(#paint10_linear_101_3)"/>
<path d="M121.821 117.374C135.082 112.64 147.301 115.052 159.844 120.643C189.231 133.743 210.359 99.402 245.874 115.248" stroke="url(#paint11_linear_101_3)" stroke-width="64.3284" stroke-linecap="round" stroke-linejoin="round"/>
<path d="M143.499 150.003C143.499 146.072 146.684 142.885 150.613 142.885C157.162 142.885 162.471 148.196 162.471 154.748V171.795H143.499V150.003Z" fill="url(#paint12_linear_101_3)"/>
<path d="M89.2079 168.618C89.2079 160.553 95.742 154.016 103.802 154.016C106.22 154.016 108.181 155.977 108.181 158.397V173.582H89.2079V168.618Z" fill="url(#paint13_linear_101_3)"/>
<path d="M108.181 154.128C108.181 144.37 116.087 136.46 125.84 136.46C135.592 136.46 143.499 144.37 143.499 154.128V171.795L108.181 173.582V154.128Z" fill="url(#paint14_linear_101_3)"/>
<path d="M156.342 164.349C156.342 160.236 159.674 156.902 163.785 156.902C167.896 156.902 171.228 160.236 171.228 164.349V171.795H156.342V164.349Z" fill="url(#paint15_linear_101_3)"/>
<path d="M83.954 167.999C83.954 165.902 85.6528 164.203 87.7485 164.203C89.8442 164.203 91.543 165.902 91.543 167.999V171.795H86.7999C85.2281 171.795 83.954 170.521 83.954 168.948V167.999Z" fill="url(#paint16_linear_101_3)"/>
<path d="M180.276 166.685C180.276 163.862 177.989 161.574 175.168 161.574C172.347 161.574 170.06 163.862 170.06 166.685V171.795H176.445C178.561 171.795 180.276 170.079 180.276 167.963V166.685Z" fill="url(#paint17_linear_101_3)"/>
<path d="M128.029 158.946C128.029 151.85 133.779 146.097 140.872 146.097C147.965 146.097 153.715 151.85 153.715 158.946V171.795H128.029V158.946Z" fill="url(#paint18_linear_101_3)"/>
<path d="M128.904 166.634C128.904 155.716 120.058 146.866 109.146 146.866C105.872 146.866 103.219 149.521 103.219 152.796V173.733H128.904V166.634Z" fill="url(#paint19_linear_101_3)"/>
<path d="M121.023 164.345C121.023 160.234 124.356 156.902 128.467 156.902V156.902C132.577 156.902 135.91 160.234 135.91 164.345V171.795H121.023V164.345Z" fill="url(#paint20_linear_101_3)"/>
<path d="M148.753 166.975C148.753 164.315 150.909 162.158 153.569 162.158V162.158C156.229 162.158 158.385 164.315 158.385 166.975V171.795H148.753V166.975Z" fill="url(#paint21_linear_101_3)"/>
<path d="M88.3191 175.848C95.4621 180.017 115.185 185.853 136.931 175.848C164.114 163.342 191.297 183.59 207.964 185.575C224.631 187.56 236.933 171.878 247.449 175.848" stroke="url(#paint22_linear_101_3)" stroke-width="64.3284" stroke-linecap="round" stroke-linejoin="round"/>
<path d="M267.49 171.841C259.487 171.378 240.703 174.263 229.592 189.508C215.703 208.566 202.607 190.303 180.98 205.39C159.352 220.477 148.439 204 133.955 221.072" stroke="url(#paint23_linear_101_3)" stroke-width="64.3284" stroke-linecap="round" stroke-linejoin="round"/>
<path d="M151.202 246.395C151.202 241.703 155.02 237.899 159.731 237.899C164.442 237.899 168.261 241.703 168.261 246.395V254.891H151.202V246.395Z" fill="url(#paint24_linear_101_3)"/>
<path d="M91.4938 249.884C91.4938 247.119 93.7442 244.878 96.5202 244.878C99.2962 244.878 101.547 247.119 101.547 249.884V254.891H96.4978C93.7341 254.891 91.4938 252.649 91.4938 249.884Z" fill="url(#paint25_linear_101_3)"/>
<path d="M97.891 239.518C97.891 235.272 101.346 231.831 105.608 231.831C114.133 231.831 121.043 238.714 121.043 247.204V254.891H97.891V239.518Z" fill="url(#paint26_linear_101_3)"/>
<path d="M116.169 242.451C116.169 228.71 127.353 217.57 141.149 217.57C148.047 217.57 153.639 223.14 153.639 230.01V254.891H116.169V242.451Z" fill="url(#paint27_linear_101_3)"/>
<path d="M157.989 241.098C157.989 233.481 151.817 227.306 144.204 227.306C136.59 227.306 130.418 233.481 130.418 241.098V254.891H157.989V241.098Z" fill="url(#paint28_linear_101_3)"/>
<path d="M132.04 243.262C132.04 236.839 126.836 231.633 120.417 231.633C113.997 231.633 108.793 236.839 108.793 243.262V254.891H132.04V243.262Z" fill="url(#paint29_linear_101_3)"/>
<path d="M144.474 244.316C144.474 238.476 139.721 233.742 133.857 233.742C127.994 233.742 123.24 238.476 123.24 244.316V254.891H144.474V244.316Z" fill="url(#paint30_linear_101_3)"/>
<path d="M218.791 248.659C218.791 245.218 215.99 242.428 212.535 242.428C209.08 242.428 206.279 245.218 206.279 248.659V254.891H212.563C216.003 254.891 218.791 252.101 218.791 248.659Z" fill="url(#paint31_linear_101_3)"/>
<path d="M210.829 235.756C210.829 230.472 206.528 226.189 201.223 226.189C190.613 226.189 182.012 234.756 182.012 245.323V254.891H210.829V235.756Z" fill="url(#paint32_linear_101_3)"/>
<path d="M188.078 239.407C188.078 222.304 174.158 208.439 156.987 208.439C148.401 208.439 141.441 215.371 141.441 223.923V254.891H188.078V239.407Z" fill="url(#paint33_linear_101_3)"/>
<path d="M136.025 237.724C136.025 228.243 143.708 220.557 153.184 220.557C162.661 220.557 170.343 228.243 170.343 237.724V254.891H136.025V237.724Z" fill="url(#paint34_linear_101_3)"/>
<path d="M168.324 240.417C168.324 232.423 174.801 225.942 182.791 225.942C190.781 225.942 197.259 232.423 197.259 240.417V254.891H168.324V240.417Z" fill="url(#paint35_linear_101_3)"/>
<path d="M179.09 244.119C179.09 238.17 174.27 233.348 168.324 233.348C162.378 233.348 157.558 238.17 157.558 244.119V254.891H179.09V244.119Z" fill="url(#paint36_linear_101_3)"/>
<path d="M141.408 251.162C141.408 244.298 146.97 238.734 153.831 238.734C155.889 238.734 157.558 240.403 157.558 242.462V254.891H141.408V251.162Z" fill="url(#paint37_linear_101_3)"/>
</g>
<defs>
<linearGradient id="paint0_linear_101_3" x1="179.5" y1="0" x2="179.5" y2="237" gradientUnits="userSpaceOnUse">
<stop stop-color="#C1C1C1"/>
<stop offset="1" stop-color="#B8F2FF"/>
</linearGradient>
<linearGradient id="paint1_linear_101_3" x1="170.662" y1="46.8488" x2="170.662" y2="129.827" gradientUnits="userSpaceOnUse">
<stop stop-color="white"/>
<stop offset="1" stop-color="#FFF61B"/>
</linearGradient>
<linearGradient id="paint2_linear_101_3" x1="216.912" y1="83.1014" x2="194.815" y2="107.374" gradientUnits="userSpaceOnUse">
<stop stop-color="#9EFF00"/>
<stop offset="1" stop-color="#2EA7DB"/>
</linearGradient>
<linearGradient id="paint3_linear_101_3" x1="155.48" y1="93.6754" x2="142.065" y2="115.451" gradientUnits="userSpaceOnUse">
<stop stop-color="#9EFF00"/>
<stop offset="1" stop-color="#2EA7DB"/>
</linearGradient>
<linearGradient id="paint4_linear_101_3" x1="192.081" y1="75.8318" x2="168.19" y2="115.804" gradientUnits="userSpaceOnUse">
<stop stop-color="#9EFF00"/>
<stop offset="1" stop-color="#2EA7DB"/>
</linearGradient>
<linearGradient id="paint5_linear_101_3" x1="225.379" y1="93.6754" x2="212.15" y2="115.809" gradientUnits="userSpaceOnUse">
<stop stop-color="#9EFF00"/>
<stop offset="1" stop-color="#2EA7DB"/>
</linearGradient>
<linearGradient id="paint6_linear_101_3" x1="174.667" y1="89.0492" x2="158.673" y2="115.808" gradientUnits="userSpaceOnUse">
<stop stop-color="#9EFF00"/>
<stop offset="1" stop-color="#2EA7DB"/>
</linearGradient>
<linearGradient id="paint7_linear_101_3" x1="138.997" y1="107.223" x2="133.863" y2="115.812" gradientUnits="userSpaceOnUse">
<stop stop-color="#9EFF00"/>
<stop offset="1" stop-color="#2EA7DB"/>
</linearGradient>
<linearGradient id="paint8_linear_101_3" x1="195.774" y1="93.6754" x2="209.003" y2="115.809" gradientUnits="userSpaceOnUse">
<stop stop-color="#9EFF00"/>
<stop offset="1" stop-color="#2EA7DB"/>
</linearGradient>
<linearGradient id="paint9_linear_101_3" x1="226.88" y1="104.249" x2="233.791" y2="115.812" gradientUnits="userSpaceOnUse">
<stop stop-color="#9EFF00"/>
<stop offset="1" stop-color="#2EA7DB"/>
</linearGradient>
<linearGradient id="paint10_linear_101_3" x1="101.15" y1="146.416" x2="237.386" y2="299.862" gradientUnits="userSpaceOnUse">
<stop stop-color="#003471"/>
<stop offset="1" stop-color="#27FFF2"/>
</linearGradient>
<linearGradient id="paint11_linear_101_3" x1="223.754" y1="110.569" x2="219.755" y2="133.847" gradientUnits="userSpaceOnUse">
<stop stop-color="#9EFF00"/>
<stop offset="1" stop-color="#2EA7DB"/>
</linearGradient>
<linearGradient id="paint12_linear_101_3" x1="162.763" y1="136.46" x2="151.75" y2="184.295" gradientUnits="userSpaceOnUse">
<stop stop-color="#9EFF00"/>
<stop offset="1" stop-color="#2EA7DB"/>
</linearGradient>
<linearGradient id="paint13_linear_101_3" x1="162.763" y1="136.46" x2="151.75" y2="184.295" gradientUnits="userSpaceOnUse">
<stop stop-color="#9EFF00"/>
<stop offset="1" stop-color="#2EA7DB"/>
</linearGradient>
<linearGradient id="paint14_linear_101_3" x1="162.763" y1="136.46" x2="151.75" y2="184.295" gradientUnits="userSpaceOnUse">
<stop stop-color="#9EFF00"/>
<stop offset="1" stop-color="#2EA7DB"/>
</linearGradient>
<linearGradient id="paint15_linear_101_3" x1="162.763" y1="136.46" x2="151.75" y2="184.295" gradientUnits="userSpaceOnUse">
<stop stop-color="#9EFF00"/>
<stop offset="1" stop-color="#2EA7DB"/>
</linearGradient>
<linearGradient id="paint16_linear_101_3" x1="162.763" y1="136.46" x2="151.75" y2="184.295" gradientUnits="userSpaceOnUse">
<stop stop-color="#9EFF00"/>
<stop offset="1" stop-color="#2EA7DB"/>
</linearGradient>
<linearGradient id="paint17_linear_101_3" x1="162.763" y1="136.46" x2="151.75" y2="184.295" gradientUnits="userSpaceOnUse">
<stop stop-color="#9EFF00"/>
<stop offset="1" stop-color="#2EA7DB"/>
</linearGradient>
<linearGradient id="paint18_linear_101_3" x1="144.534" y1="146.097" x2="133.458" y2="179.974" gradientUnits="userSpaceOnUse">
<stop stop-color="#9EFF00"/>
<stop offset="1" stop-color="#2EA7DB"/>
</linearGradient>
<linearGradient id="paint19_linear_101_3" x1="144.534" y1="146.097" x2="133.458" y2="179.974" gradientUnits="userSpaceOnUse">
<stop stop-color="#9EFF00"/>
<stop offset="1" stop-color="#2EA7DB"/>
</linearGradient>
<linearGradient id="paint20_linear_101_3" x1="133.203" y1="156.902" x2="124.304" y2="171.792" gradientUnits="userSpaceOnUse">
<stop stop-color="#9EFF00"/>
<stop offset="1" stop-color="#2EA7DB"/>
</linearGradient>
<linearGradient id="paint21_linear_101_3" x1="156.634" y1="162.158" x2="150.875" y2="171.793" gradientUnits="userSpaceOnUse">
<stop stop-color="#9EFF00"/>
<stop offset="1" stop-color="#2EA7DB"/>
</linearGradient>
<linearGradient id="paint22_linear_101_3" x1="218.517" y1="171.795" x2="217.527" y2="190.678" gradientUnits="userSpaceOnUse">
<stop stop-color="#9EFF00"/>
<stop offset="1" stop-color="#2EA7DB"/>
</linearGradient>
<linearGradient id="paint23_linear_101_3" x1="243.211" y1="171.795" x2="229.154" y2="235.56" gradientUnits="userSpaceOnUse">
<stop stop-color="#9EFF00"/>
<stop offset="1" stop-color="#2EA7DB"/>
</linearGradient>
<linearGradient id="paint24_linear_101_3" x1="154.303" y1="217.57" x2="140.74" y2="264.271" gradientUnits="userSpaceOnUse">
<stop stop-color="#9EFF00"/>
<stop offset="1" stop-color="#2EA7DB"/>
</linearGradient>
<linearGradient id="paint25_linear_101_3" x1="154.303" y1="217.57" x2="140.74" y2="264.271" gradientUnits="userSpaceOnUse">
<stop stop-color="#9EFF00"/>
<stop offset="1" stop-color="#2EA7DB"/>
</linearGradient>
<linearGradient id="paint26_linear_101_3" x1="154.303" y1="217.57" x2="140.74" y2="264.271" gradientUnits="userSpaceOnUse">
<stop stop-color="#9EFF00"/>
<stop offset="1" stop-color="#2EA7DB"/>
</linearGradient>
<linearGradient id="paint27_linear_101_3" x1="154.303" y1="217.57" x2="140.74" y2="264.271" gradientUnits="userSpaceOnUse">
<stop stop-color="#9EFF00"/>
<stop offset="1" stop-color="#2EA7DB"/>
</linearGradient>
<linearGradient id="paint28_linear_101_3" x1="117.738" y1="227.306" x2="129.011" y2="260.959" gradientUnits="userSpaceOnUse">
<stop stop-color="#9EFF00"/>
<stop offset="1" stop-color="#2EA7DB"/>
</linearGradient>
<linearGradient id="paint29_linear_101_3" x1="117.738" y1="227.306" x2="129.011" y2="260.959" gradientUnits="userSpaceOnUse">
<stop stop-color="#9EFF00"/>
<stop offset="1" stop-color="#2EA7DB"/>
</linearGradient>
<linearGradient id="paint30_linear_101_3" x1="140.613" y1="208.439" x2="157.495" y2="266.566" gradientUnits="userSpaceOnUse">
<stop stop-color="#9EFF00"/>
<stop offset="1" stop-color="#2EA7DB"/>
</linearGradient>
<linearGradient id="paint31_linear_101_3" x1="140.613" y1="208.439" x2="157.495" y2="266.566" gradientUnits="userSpaceOnUse">
<stop stop-color="#9EFF00"/>
<stop offset="1" stop-color="#2EA7DB"/>
</linearGradient>
<linearGradient id="paint32_linear_101_3" x1="140.613" y1="208.439" x2="157.495" y2="266.566" gradientUnits="userSpaceOnUse">
<stop stop-color="#9EFF00"/>
<stop offset="1" stop-color="#2EA7DB"/>
</linearGradient>
<linearGradient id="paint33_linear_101_3" x1="140.613" y1="208.439" x2="157.495" y2="266.566" gradientUnits="userSpaceOnUse">
<stop stop-color="#9EFF00"/>
<stop offset="1" stop-color="#2EA7DB"/>
</linearGradient>
<linearGradient id="paint34_linear_101_3" x1="186.125" y1="220.557" x2="172.094" y2="262.444" gradientUnits="userSpaceOnUse">
<stop stop-color="#9EFF00"/>
<stop offset="1" stop-color="#2EA7DB"/>
</linearGradient>
<linearGradient id="paint35_linear_101_3" x1="186.125" y1="220.557" x2="172.094" y2="262.444" gradientUnits="userSpaceOnUse">
<stop stop-color="#9EFF00"/>
<stop offset="1" stop-color="#2EA7DB"/>
</linearGradient>
<linearGradient id="paint36_linear_101_3" x1="148.26" y1="233.348" x2="157.201" y2="259.526" gradientUnits="userSpaceOnUse">
<stop stop-color="#9EFF00"/>
<stop offset="1" stop-color="#2EA7DB"/>
</linearGradient>
<linearGradient id="paint37_linear_101_3" x1="148.26" y1="233.348" x2="157.201" y2="259.526" gradientUnits="userSpaceOnUse">
<stop stop-color="#9EFF00"/>
<stop offset="1" stop-color="#2EA7DB"/>
</linearGradient>
<clipPath id="clip0_101_3">
<rect width="359" height="237" rx="12" fill="white"/>
</clipPath>
</defs>
</svg>
